<?xml version="1.0" encoding="UTF-8"?>
<svg id="Layer_1" data-name="Layer 1" xmlns="http://www.w3.org/2000/svg" viewBox="0 0 595.28 841.89">
  <defs>
    <style>
      .cls-1 {
        fill: #231f20;
      }
    </style>
  </defs>
  <g>
    <path class="cls-1" d="m196.02,153.7c-.08.08-.23.16-.31.04-.04-.04.16-.16.23-.31.55-.74.82-1.6.82-2.42,0-1.17-.55-2.85-3.32-2.85-4.6,0-8.07,3.51-12.6,9.71-2.96,4.02-5.15,7.45-6.59,9.95.97,1.37,3.12,3.82,4.48,5.23,4.06,4.25,7.72,6.47,10.37,6.47,2.07,0,3.08-.94,3.9-2.03.23-.31.23-.39.31-.35.08.04.08.16-.04.43-.86,1.99-2.69,3.24-5.03,3.24-3.16,0-5.38-.94-9.98-5.62-1.37-1.4-3.71-4.33-4.76-6.08-1.29,2.15-3.04,5.54-3.59,6.98-.2.51-.27.86-.35.82-.12-.08-.16-.86-.04-1.64.39-2.3,1.68-5.73,2.69-7.96-.51-1.01-1.48-2.34-1.79-2.69-.31.2-.82.66-1.33,1.52-1.4,2.42-1.87,4.99-1.87,8.31,0,.7.16,1.68.35,2.26.16.47.39.7.55.9-.43-.19-.78-.58-1.09-1.13-.39-.66-1.01-2.46-1.13-3.98-.23-3.24.9-5.5,2.15-7.06.47-.59,1.33-1.25,1.79-1.29.31-.04,1.21.19,1.52.31.43.12,1.01.98,1.44,1.6,1.09-2.3,3.12-5.77,5.62-8.89,3.94-4.91,11-9.87,15.09-9.87,2.85,0,4.06,1.79,3.94,3.47-.08,1.33-.82,2.34-1.44,2.93Z"/>
    <path class="cls-1" d="m198.13,163.61c-.27.12-.62.16-.78.16-.35,0-.58-.04-.86-.19.94,1.4,1.29,3.28.51,5.11-1.6,3.78-4.84,5.15-6.16,4.76s-2.5-1.99-1.52-4.88c.86-2.46,2.38-4.02,4.72-5.03.31-.16.82-.35.9-.27.04.04-.23.2-.47.47-1.29,1.33-2.81,3.9-3.51,6.4-.47,1.68-.55,2.69.04,2.93s1.4-.23,2.65-2.18c.78-1.21,1.68-2.89,2.15-4.64.39-1.4.31-2.57-.51-3.31-.39-.35-.58-.55-.62-.66-.08-.2,0-.51.31-.62.35-.16.55.08.7.35.27.43.51.74.7.94.23.23.47.35.94.43.16.04.47.04.74,0,.19-.04.43-.12.43,0,0,.08-.08.16-.35.27Z"/>
    <path class="cls-1" d="m215.99,165.17c-.94,1.52-2.11,2.77-3.35,4.02-1.72,1.72-3.74,3.35-4.45,4.45-.16.2-.16.35-.47.31-.82-.12-.98-.74-.98-.86,0-.47.12-.94.39-1.33.27-.51.59-1.36.7-1.83.58-1.99.98-3.59,1.05-5.19.04-1.01-.35-1.56-1.01-1.56-.19,0-.51.08-.7.19-.43.23-.7.55-.74.43-.04-.12.23-.51.7-.78.47-.27,1.21-.7,2.3-.7s1.68.94,1.6,2.3c-.12,2.03-.94,4.13-1.68,6.01-.16.35-.47,1.17-.86,1.87.62-.74,2.07-2.11,3-3.28,2.46-3.04,3.32-4.37,4.1-6.4.31-.82.04-1.05.2-1.05.19,0,.86.55.86,1.33,0,.55-.23,1.33-.66,2.07Z"/>
    <path class="cls-1" d="m232.14,164.39c-.62.51-1.83.94-2.89.82-.47-.04-.9-.19-1.13-.31-.19.27-.82,1.21-1.09,1.76-.78,1.56-1.21,2.57-1.64,4.09-.35,1.33-.23,2.22.35,2.38.86.23,2.22-.9,3.12-2.38.51-.86.82-1.79.98-2.42.04-.19.12-.47.23-.47s.12.23.12.43c-.04.58-.35,1.6-.98,2.69-1.09,1.87-2.61,2.92-3.86,2.73-1.75-.27-2.26-1.87-1.87-3.74.23-1.17,1.13-3.08,2.15-4.25,1.99-2.3,4.17-3.51,6.2-3.47.66,0,1.05.31,1.05.74,0,.55-.23,1.01-.74,1.4Zm-.98-1.72c-.97,0-2.42,1.33-2.85,1.95.31.16.62.27,1.05.27,1.17.04,2.3-1.09,2.26-1.83,0-.23-.23-.39-.47-.39Z"/>
    <path class="cls-1" d="m286.19,155.38c-.74,2.85-2.11,6.94-3.39,9.75-2.96,6.47-6.24,11.7-11.08,16.11-4.21,3.82-9.56,6.59-14.7,6.59-2.96,0-3.08-1.99-2.81-2.18.12-.08.55.86,3.2,1.01,5.27.31,8.27-1.6,12.09-5.38,3.86-3.74,7.8-9.79,11.31-17.32,1.17-2.5,1.79-3.71,2.85-6.12-3.32,5.66-6.51,8.78-9.63,11.51s-5.81,4.68-8.42,5.58c-.47.16-1.64.55-2.38.23-.82-.35-.98-1.44-.47-2.46.86-1.79,4.45-6.55,6.79-11.31,1.48-3.04,3.08-6.4,2.85-10.02-.16-2.42-1.56-3.78-4.02-3.9-2.77-.08-4.91.9-6.79,2.07-3.28,2.07-6.83,5.85-6.67,9.17.04,1.17.82,1.76,1.79,1.79,1.17.04,1.91-.31,2.57-.62.27-.12.47-.27.51-.19.08.16-.23.31-.43.43-.7.35-1.48.74-2.65.74-1.09,0-2.38-.62-2.46-2.11-.16-3.35,2.11-6.98,4.64-8.85,2.42-1.79,6.24-2.96,9.36-2.85,4.06.16,6.59,2.61,6.75,5.81.16,3.28-1.13,5.97-2.81,9.09-1.95,3.67-4.8,7.72-6.83,10.76-.51.78-.74,1.33-.58,1.56.16.23.62.27,1.4-.08,2.15-.94,4.56-2.61,7.68-5.34,3.04-2.65,6.63-6.44,10.37-12.91.39-.98.86-2.26,1.4-3.28.31-.62,1.09-1.64,1.87-1.4.55.16.7.9.27,1.79-.43.86-1.01,1.64-1.6,2.34Z"/>
    <path class="cls-1" d="m300.42,163.61c-.27.12-.62.16-.78.16-.35,0-.58-.04-.86-.19.94,1.4,1.29,3.28.51,5.11-1.6,3.78-4.84,5.15-6.16,4.76s-2.5-1.99-1.52-4.88c.86-2.46,2.38-4.02,4.72-5.03.31-.16.82-.35.9-.27.04.04-.23.2-.47.47-1.29,1.33-2.81,3.9-3.51,6.4-.47,1.68-.55,2.69.04,2.93.58.23,1.4-.23,2.65-2.18.78-1.21,1.68-2.89,2.15-4.64.39-1.4.31-2.57-.51-3.31-.39-.35-.58-.55-.62-.66-.08-.2,0-.51.31-.62.35-.16.55.08.7.35.27.43.51.74.7.94.23.23.47.35.94.43.16.04.47.04.74,0,.2-.04.43-.12.43,0,0,.08-.08.16-.35.27Z"/>
    <path class="cls-1" d="m318.99,162.32c-.62.97-1.91,3.74-2.57,5.5-.31.86-.9,2.46-1.56,3.78.43-.43.97-.82,1.21-.98.47-.31.7-.47.97-.58.16-.08.47-.23.51-.12.04.12-.12.19-.23.27-.47.27-.94.62-1.44,1.01-.66.51-2.07,1.6-3,2.54-.08.08-.27.43-.51.39-.39-.08-.2-.35.08-.78.43-1.09,1.09-3.12,1.6-4.49-.55.86-1.48,2.18-1.91,2.69-.74.86-1.68,1.91-2.61,1.91-1.01,0-1.44-.51-1.44-1.09,0-.94.31-2.15,1.33-4.64.7-1.68,1.37-2.81,2.07-4.06-.12.04-.51.08-.62.08-.35,0-.58-.08-.51-.19.04-.08.16-.04.82-.2.58-.12,2.07-.51,2.42-.74.19-.08.35-.04.23.2-.7,1.29-1.6,3.08-2.38,4.91-.7,1.64-1.09,2.77-1.33,3.71-.12.47-.23,1.05.16,1.21.39.12,1.09-.62,1.6-1.21.74-.9,1.72-2.3,2.57-3.78.12-.16.2-.43.27-.58.43-.94.97-2.18,1.37-2.92.31-.58.74-1.29,1.33-1.68.74-.51,1.6-.62,1.68-.55.08.08.04.19-.08.39Z"/>
    <path class="cls-1" d="m334.43,165.64c-.12.04-.39.23-.51.12-.08-.04.04-.12.19-.39.16-.27.27-.55.31-.94.04-.35-.08-.62-.31-.66-.27-.04-.55.12-.74.27-.47.39-.86.78-1.13,1.09-.78.86-1.44,1.83-1.99,2.65-.58.98-2.07,4.37-2.77,5.15-.12.16-.23.19-.39.39-.16.16-.82.55-1.13.62-.27.08-.74.12-.86-.04-.08-.12.12-.16.31-.43.51-.74,1.56-3.04,2.26-4.84,1.01-2.5,1.4-3.82,1.6-5.11-.2.08-.43.12-.74.16-.08,0-.27.04-.31-.08-.04-.16.12-.19.23-.23.62-.19,2.42-.78,2.89-1.13.16-.08.31-.08.39-.04.12.12.08.23.04.43-.31,1.4-1.17,3.74-1.75,4.95.66-.98,1.44-2.11,2.18-2.93.7-.74,1.01-1.09,1.72-1.56.31-.23.97-.58,1.64-.58,1.05,0,.97.78.94,1.09-.16,1.01-1.17,1.64-2.07,2.03Z"/>
    <path class="cls-1" d="m391.18,154.29c-1.52-.9-5.89-2.38-8.81-3.24-.86,1.87-1.91,4.21-3.28,6.94-.62,1.29-1.29,2.57-1.99,3.86,1.01.23,2.14.47,3,.62,1.68.31,3.86.66,5.26.7.12,0,.35,0,.31.12-.04.16-.43.2-.66.2-1.95.08-4.45-.12-6.32-.43-.66-.12-1.25-.23-2.03-.39-3.47,6.4-9.09,13.53-14.82,14.24-2.89.35-4.56-.47-4.52-1.99.08-1.91,2.38-3.31,3.82-3.9.35-.16,1.05-.31,1.05-.2,0,.08-.27.16-.86.55-.62.39-2.18,1.48-2.22,3-.04,1.29,1.05,2.26,2.96,2.03,5.03-.66,8.78-7.72,12.05-14.35-.66-.19-1.25-.39-1.6-.55-.51-.23-.58-.51-.43-.78.12-.2.27-.27,1.44.19.23.08.58.19.98.31.66-1.21,1.09-2.11,1.79-3.47,1.48-2.92,2.85-5.62,3.78-7.33-1.48-.47-4.56-1.01-6.71-1.17-4.09-.31-8.97-.12-9.13,4.45-.04,1.68,2.11,3.82,3.43,4.72.16.16.35.19.27.31-.04.12-.35-.08-.51-.16-2.57-1.4-4.56-2.65-4.84-4.41-.9-5.54,8.66-5.85,11.04-5.69,2.73.19,4.56.47,6.9,1.01.35-.66.78-1.05,1.56-1.87,1.09-1.17,3.2-1.79,3.32-1.68s-.2.23-.58.74c-.66.86-1.25,1.75-2.07,3.39,4.33,1.17,6.63,2.46,8.5,3.94.19.16.55.51.39.62-.04.04-.2-.16-.51-.35Z"/>
    <path class="cls-1" d="m398.27,168.52c-.58,1.56-1.44,3.2-2.3,4.68.7-.86,1.83-1.95,2.26-2.26.47-.39,1.05-.74,1.4-.86.08-.04.23-.12.27-.04.08.12-.04.16-.2.23-.31.16-1.09.78-1.6,1.25-.82.74-1.4,1.44-1.83,1.91-.43.47-.94.98-1.56.9-.47-.04-.62-.51-.31-1.21.62-1.33,1.68-4.06,2.54-6.32-.94,1.6-2.07,3.16-3.12,4.33-1.13,1.25-2.14,1.95-2.85,1.95-1.09,0-1.56-.86-1.6-2.15,0-.7.27-1.79.66-2.65.66-1.48,1.87-3,3.28-4.06,1.17-.94,2.54-1.56,3.74-1.52.82.04,1.17.58,1.17,1.01.16-.27.39-.66.51-.82.31-.39.47-.62,1.01-.51.58.12.74.51.66.7-.55,1.37-1.4,3.47-2.15,5.42Zm-1.21-5.42c-1.75,0-3.9,3.24-5.38,6.36-.31.7-.66,1.72-.66,2.3,0,.31.12.62.47.62,1.09,0,3.47-2.96,4.99-5.46.62-.98,1.09-2.11,1.29-2.65.27-.74-.12-1.17-.7-1.17Z"/>
    <path class="cls-1" d="m416.45,163.84c-.16.08-.35.23-.43.08-.12-.08,0-.23.04-.39.2-.35.27-1.01-.12-1.05-1.52-.23-4.33,3.94-5.3,7.49-.2.74-.35,1.56-.35,2.03,0,.55.16.82.43.94.51.19,1.4-.27,2.14-1.09.66-.74,1.4-1.87,1.91-2.93.2-.43.31-.9.39-.86.19.04,0,.7-.16,1.05-.43,1.09-1.13,2.22-1.87,3.04-.78.9-1.68,1.37-2.65,1.37-1.48,0-2.18-1.05-2.22-2.15-.04-1.01.47-3.12,1.37-4.6,1.95-3.24,4.13-4.56,6.32-4.6.74,0,1.13.23,1.17.62.04.47-.31.82-.66,1.05Z"/>
    <path class="cls-1" d="m432.48,164.39c-.62.51-1.83.94-2.89.82-.47-.04-.9-.19-1.13-.31-.2.27-.82,1.21-1.09,1.76-.78,1.56-1.21,2.57-1.64,4.09-.35,1.33-.23,2.22.35,2.38.86.23,2.22-.9,3.12-2.38.51-.86.82-1.79.97-2.42.04-.19.12-.47.23-.47s.12.23.12.43c-.04.58-.35,1.6-.98,2.69-1.09,1.87-2.61,2.92-3.86,2.73-1.75-.27-2.26-1.87-1.87-3.74.23-1.17,1.13-3.08,2.14-4.25,1.99-2.3,4.17-3.51,6.2-3.47.66,0,1.05.31,1.05.74,0,.55-.23,1.01-.74,1.4Zm-.98-1.72c-.97,0-2.42,1.33-2.85,1.95.31.16.62.27,1.05.27,1.17.04,2.3-1.09,2.26-1.83,0-.23-.23-.39-.47-.39Z"/>
  </g>
  <path class="cls-1" d="m392.75,158.83c.22.01,36.68-55.68,20.7-65.89-17.71-11.31-88.87,40.2-87.73,42.88,1.07,2.5,64.52-38.29,80.1-25.95,12.59,9.97-13.26,48.95-13.07,48.96Z"/>
  <path class="cls-1" d="m279.64,158.83c-.21.05-26.76-53.49-10.39-67.25,18.13-15.24,77.77,27.75,76.33,30.83-1.34,2.87-55.22-29.94-71.5-13.96-13.16,12.91,5.73,50.33,5.56,50.38Z"/>
  <path class="cls-1" d="m287.2,177.61c6.91,23.62,23.56,41.49,41.91,42.36,31.09,1.48,56.61-46.3,55.74-46.58-.71-.22-18.26,32.07-46.65,33-18.65.61-36.2-12.5-51-28.79Z"/>
</svg>