<?xml version="1.0" encoding="UTF-8"?>
<svg id="Layer_1" data-name="Layer 1" xmlns="http://www.w3.org/2000/svg" viewBox="0 0 1555.65 443.06">
  <defs>
    <style>
      .cls-1 {
        isolation: isolate;
      }

      .cls-2 {
        fill: #ff6647;
      }
    </style>
  </defs>
  <path class="cls-2" d="m535.28,211.37c-15.15-35.33-45.04-64.71-84.18-82.73-30.74-14.15-64.1-17.4-96.48-9.38-21.6,5.35-42.01,15.4-60.03,29.44-1.05-22.82-6.68-44.86-16.66-64.75-14.96-29.81-39.11-53.05-69.85-67.2C168.95-1.28,127.19-4.89,90.5,6.57,56.33,17.25,28.78,40.63,14.92,70.72-1.72,106.86-4.46,148.83,6.78,195.46c8.9,36.93,26.54,76.83,52.44,118.62,43.89,70.8,95.65,121.87,97.83,124.01,1.87,1.83,4.49,3.04,7.1,3.27,3.04.27,75.5,6.39,157.83-6.29,48.59-7.49,90.38-20.03,124.22-37.28,42.73-21.78,72.84-51.15,89.48-87.29,13.86-30.1,13.71-66.23-.39-99.13Z"/>
  <g class="cls-1">
    <path d="m153.26,147.09c-4.96,5.51-21.41,34.51-33.16,63.8-7.05,17.98-18.54,49.3-22.46,66.12-1.31,4.93-2.09,10.44-.26,11.02,2.35.58,8.36-7.54,10.44-11.6,1.83-3.19,2.09-4.93,2.87-4.64.78.29.78,2.32-1.57,6.67-3.66,6.67-10.18,16.24-16.97,15.95-6.53-.29-8.09-6.38-7.57-14.5.26-3.19,1.57-11.31,2.87-15.95,6.53-23.2,12.79-40.02,19.85-56.26,12.27-28.42,25.33-48.72,40.74-61.48,4.96-4.06,10.71-5.8,11.23-4.35.26.87-1.83.58-6.01,5.22Z"/>
    <path d="m230.81,217.56c-1.83.87-4.18,1.16-5.22,1.16-2.35,0-3.92-.29-5.74-1.45,6.27,10.44,8.62,24.36,3.39,37.99-10.71,28.13-32.38,38.28-41.26,35.38-8.88-2.9-16.71-14.79-10.18-36.25,5.74-18.27,15.93-29.87,31.6-37.41,2.09-1.16,5.48-2.61,6.01-2.03.26.29-1.57,1.45-3.13,3.48-8.62,9.86-18.8,29-23.5,47.56-3.13,12.47-3.66,20.01.26,21.75,3.92,1.74,9.4-1.74,17.76-16.24,5.22-8.99,11.23-21.46,14.36-34.51,2.61-10.44,2.09-19.14-3.39-24.65-2.61-2.61-3.92-4.06-4.18-4.93-.52-1.45,0-3.77,2.09-4.64,2.35-1.16,3.66.58,4.7,2.61,1.83,3.19,3.39,5.51,4.7,6.96,1.57,1.74,3.13,2.61,6.27,3.19,1.04.29,3.13.29,4.96,0,1.31-.29,2.87-.87,2.87,0,0,.58-.52,1.16-2.35,2.03Z"/>
    <path d="m344.92,229.16c-6.27,11.31-14.1,20.59-22.46,29.87-11.49,12.76-25.07,24.94-29.77,33.06-1.04,1.45-1.04,2.61-3.13,2.32-5.48-.87-6.53-5.51-6.53-6.38,0-3.48.78-6.96,2.61-9.86,1.83-3.77,3.92-10.15,4.7-13.63,3.92-14.79,6.53-26.68,7.05-38.57.26-7.54-2.35-11.6-6.79-11.6-1.31,0-3.39.58-4.7,1.45-2.87,1.74-4.7,4.06-4.96,3.19-.26-.87,1.57-3.77,4.7-5.8,3.13-2.03,8.1-5.22,15.41-5.22s11.23,6.96,10.71,17.11c-.78,15.08-6.27,30.74-11.23,44.66-1.04,2.61-3.13,8.7-5.74,13.92,4.18-5.51,13.84-15.66,20.11-24.36,16.45-22.62,22.2-32.48,27.42-47.56,2.09-6.09.26-7.83,1.31-7.83,1.31,0,5.74,4.06,5.74,9.86,0,4.06-1.57,9.86-4.44,15.37Z"/>
    <path d="m447.54,223.36c-4.18,3.77-12.27,6.96-19.32,6.09-3.13-.29-6.01-1.45-7.57-2.32-1.31,2.03-5.48,8.99-7.31,13.05-5.22,11.6-8.09,19.14-10.97,30.45-2.35,9.86-1.57,16.53,2.35,17.69,5.74,1.74,14.88-6.67,20.89-17.69,3.39-6.38,5.48-13.34,6.53-17.98.26-1.45.78-3.48,1.57-3.48s.78,1.74.78,3.19c-.26,4.35-2.35,11.89-6.53,20.01-7.31,13.92-17.5,21.75-25.85,20.3-11.75-2.03-15.15-13.92-12.53-27.84,1.57-8.7,7.57-22.91,14.36-31.61,13.32-17.11,27.94-26.1,41.52-25.81,4.44,0,7.05,2.32,7.05,5.51,0,4.06-1.57,7.54-4.96,10.44Zm-6.53-12.76c-6.53,0-16.19,9.86-19.06,14.5,2.09,1.16,4.18,2.03,7.05,2.03,7.83.29,15.41-8.12,15.15-13.63,0-1.74-1.57-2.9-3.13-2.9Z"/>
    <path d="m657.74,231.19c-2.35,8.99-4.96,17.98-10.71,32.48-7.83,20.01-18.8,40.6-32.12,58.87-24.02,32.77-62.93,58.58-88.78,58.58-6.01,0-10.45-2.9-12.53-5.8-1.31-1.74-2.09-5.8-1.31-6.38.52-.29.78.87,2.61,2.32,3.39,2.61,7.31,4.06,12.79,4.06,27.68,0,44.13-9.86,75.99-55.39,13.06-18.56,25.85-46.98,33.95-68.44-6.01,10.15-13.58,18.56-20.11,25.52-6.53,6.96-12.27,12.47-14.88,16.53-.78,1.45-2.61,2.61-3.92,2.32-4.44-.87-6.27-4.06-4.7-8.99,1.83-5.8,3.92-11.89,5.22-16.82,3.66-13.34,7.05-29.58,7.57-42.63.26-6.96-1.57-11.31-5.48-11.31-1.04,0-2.35.29-3.66,1.16-2.09,1.16-3.4,2.32-3.66,1.74-.52-.87,1.31-2.61,3.66-4.06,3.66-2.32,8.09-4.93,14.36-4.93,6.79,0,9.66,6.96,8.88,16.53-1.04,16.24-5.74,33.35-9.66,44.66-.52,1.74-4.96,12.76-7.57,17.98,4.7-5.8,17.5-19.43,24.02-28.13,10.97-14.5,18.28-29.29,24.29-49.3,1.31-4.06.26-6.38,1.31-6.38s6.27,4.93,6.01,15.66c0,2.32-.78,7.54-1.57,10.15Z"/>
    <path d="m769.76,217.56c-1.83.87-4.18,1.16-5.22,1.16-2.35,0-3.92-.29-5.74-1.45,6.27,10.44,8.62,24.36,3.39,37.99-10.71,28.13-32.38,38.28-41.26,35.38-8.88-2.9-16.71-14.79-10.18-36.25,5.75-18.27,15.93-29.87,31.6-37.41,2.09-1.16,5.48-2.61,6.01-2.03.26.29-1.57,1.45-3.13,3.48-8.62,9.86-18.8,29-23.5,47.56-3.13,12.47-3.66,20.01.26,21.75,3.92,1.74,9.4-1.74,17.76-16.24,5.22-8.99,11.23-21.46,14.36-34.51,2.61-10.44,2.09-19.14-3.39-24.65-2.61-2.61-3.92-4.06-4.18-4.93-.52-1.45,0-3.77,2.09-4.64,2.35-1.16,3.66.58,4.7,2.61,1.83,3.19,3.39,5.51,4.7,6.96,1.57,1.74,3.13,2.61,6.27,3.19,1.04.29,3.13.29,4.96,0,1.31-.29,2.87-.87,2.87,0,0,.58-.52,1.16-2.35,2.03Z"/>
    <path d="m888.57,207.99c-4.18,7.25-12.79,27.84-17.23,40.89-2.09,6.38-6.01,18.27-10.45,28.13,2.87-3.19,6.53-6.09,8.1-7.25,3.13-2.32,4.7-3.48,6.53-4.35,1.04-.58,3.13-1.74,3.39-.87.26.87-.78,1.45-1.57,2.03-3.13,2.03-6.27,4.64-9.66,7.54-4.44,3.77-13.84,11.89-20.11,18.85-.52.58-1.83,3.19-3.4,2.9-2.61-.58-1.3-2.61.52-5.8,2.87-8.12,7.31-23.2,10.71-33.35-3.66,6.38-9.92,16.24-12.79,20.01-4.96,6.38-11.23,14.21-17.5,14.21-6.79,0-9.66-3.77-9.66-8.12,0-6.96,2.09-15.95,8.88-34.51,4.7-12.47,9.14-20.88,13.84-30.16-.78.29-3.39.58-4.18.58-2.35,0-3.92-.58-3.39-1.45.26-.58,1.04-.29,5.48-1.45,3.92-.87,13.84-3.77,16.19-5.51,1.31-.58,2.35-.29,1.57,1.45-4.7,9.57-10.71,22.91-15.93,36.54-4.7,12.18-7.31,20.59-8.88,27.55-.78,3.48-1.57,7.83,1.04,8.99,2.61.87,7.31-4.64,10.71-8.99,4.96-6.67,11.49-17.11,17.23-28.13.78-1.16,1.31-3.19,1.83-4.35,2.87-6.96,6.53-16.24,9.14-21.75,2.09-4.35,4.96-9.57,8.88-12.47,4.96-3.77,10.71-4.64,11.23-4.06.52.58.26,1.45-.52,2.9Z"/>
    <path d="m986.49,232.64c-.78.29-2.61,1.74-3.39.87-.52-.29.26-.87,1.31-2.9,1.04-2.03,1.83-4.06,2.09-6.96.26-2.61-.52-4.64-2.09-4.93-1.83-.29-3.66.87-4.96,2.03-3.13,2.9-5.75,5.8-7.57,8.12-5.22,6.38-9.66,13.63-13.32,19.72-3.92,7.25-13.84,32.48-18.54,38.28-.78,1.16-1.57,1.45-2.61,2.9-1.04,1.16-5.48,4.06-7.57,4.64-1.83.58-4.96.87-5.74-.29-.52-.87.78-1.16,2.09-3.19,3.39-5.51,10.45-22.62,15.15-35.96,6.79-18.56,9.4-28.42,10.71-37.99-1.31.58-2.87.87-4.96,1.16-.52,0-1.83.29-2.09-.58-.26-1.16.78-1.45,1.57-1.74,4.18-1.45,16.19-5.8,19.32-8.41,1.04-.58,2.09-.58,2.61-.29.78.87.52,1.74.26,3.19-2.09,10.44-7.83,27.84-11.75,36.83,4.44-7.25,9.66-15.66,14.62-21.75,4.7-5.51,6.79-8.12,11.49-11.6,2.09-1.74,6.53-4.35,10.97-4.35,7.05,0,6.53,5.8,6.27,8.12-1.04,7.54-7.83,12.18-13.84,15.08Z"/>
    <path d="m1230.9,160.43c-.78.58-3.92,2.03-4.18,1.16-.26-.87,1.04-1.16,2.35-2.61,2.35-2.61,3.92-4.93,3.92-8.7,0-4.35-2.09-7.25-6.53-7.25-13.84,0-28.2,22.04-34.73,36.54-6.01,11.89-10.18,24.07-14.36,35.67,2.87,0,7.05.29,10.97.58,6.79.58,10.18,1.45,9.92,2.32-.26,1.16-3.92.29-9.66.29-4.7,0-8.62.29-12.79.58-11.49,31.9-13.84,39.73-23.76,65.54-20.37,53.65-51.96,96.86-88,96.86-13.84,0-19.84-11.6-18.54-13.92,1.04-1.45,3.66,6.09,19.06,6.09,44.13,0,53.53-34.51,73.12-87,8.88-23.78,11.23-31.03,14.88-42.63,1.04-3.77,1.31-8.99,1.04-12.18-.78-6.96-3.66-9.28-7.05-10.73-1.31-.58-3.13-.87-2.61-2.61.78-2.03,3.66-2.61,7.83-2.9,3.66-.29,7.83-.29,11.23-.29,3.39-9.57,9.4-24.07,15.67-34.8,13.06-22.33,33.95-41.47,53.79-41.47,6.53,0,9.66,3.77,9.14,8.41-.52,4.64-5.22,9.57-10.71,13.05Zm-78.34,59.45c3.13,3.77,3.39,12.47,2.35,17.69l6.53-18.27c-2.35,0-6.79.29-8.88.58Z"/>
    <path d="m1287.04,254.1c-3.92,11.6-9.66,23.78-15.41,34.8,4.7-6.38,12.27-14.5,15.15-16.82,3.13-2.9,7.05-5.51,9.4-6.38.52-.29,1.57-.87,1.83-.29.52.87-.26,1.16-1.31,1.74-2.09,1.16-7.31,5.8-10.71,9.28-5.48,5.51-9.4,10.73-12.27,14.21s-6.27,7.25-10.45,6.67c-3.13-.29-4.18-3.77-2.09-8.99,4.18-9.86,11.23-30.16,16.97-46.98-6.27,11.89-13.84,23.49-20.89,32.19-7.57,9.28-14.36,14.5-19.06,14.5-7.31,0-10.45-6.38-10.71-15.95,0-5.22,1.83-13.34,4.44-19.72,4.44-11.02,12.53-22.33,21.93-30.16,7.83-6.96,16.97-11.6,25.07-11.31,5.48.29,7.83,4.35,7.83,7.54,1.04-2.03,2.61-4.93,3.39-6.09,2.09-2.9,3.13-4.64,6.79-3.77,3.92.87,4.96,3.77,4.44,5.22-3.66,10.15-9.4,25.81-14.36,40.31Zm-8.09-40.31c-11.75,0-26.11,24.07-36.04,47.27-2.09,5.22-4.44,12.76-4.44,17.11,0,2.32.78,4.64,3.13,4.64,7.31,0,23.24-22.04,33.42-40.6,4.18-7.25,7.31-15.66,8.62-19.72,1.83-5.51-.78-8.7-4.7-8.7Z"/>
    <path d="m1403.24,219.3c-1.04.58-2.35,1.74-2.87.58-.78-.58,0-1.74.26-2.9,1.31-2.61,1.83-7.54-.78-7.83-10.18-1.74-28.98,29.29-35.51,55.68-1.31,5.51-2.35,11.6-2.35,15.08,0,4.06,1.04,6.09,2.87,6.96,3.39,1.45,9.4-2.03,14.36-8.12,4.44-5.51,9.4-13.92,12.79-21.75,1.31-3.19,2.09-6.67,2.61-6.38,1.31.29,0,5.22-1.04,7.83-2.87,8.12-7.57,16.53-12.53,22.62-5.22,6.67-11.23,10.15-17.76,10.15-9.92,0-14.62-7.83-14.88-15.95-.26-7.54,3.13-23.2,9.14-34.22,13.06-24.07,27.68-33.93,42.3-34.22,4.96,0,7.57,1.74,7.83,4.64.26,3.48-2.09,6.09-4.44,7.83Z"/>
    <path d="m1505.07,223.36c-4.18,3.77-12.27,6.96-19.32,6.09-3.13-.29-6.01-1.45-7.57-2.32-1.31,2.03-5.48,8.99-7.31,13.05-5.22,11.6-8.09,19.14-10.97,30.45-2.35,9.86-1.57,16.53,2.35,17.69,5.74,1.74,14.88-6.67,20.89-17.69,3.39-6.38,5.48-13.34,6.53-17.98.26-1.45.78-3.48,1.57-3.48s.78,1.74.78,3.19c-.26,4.35-2.35,11.89-6.53,20.01-7.31,13.92-17.5,21.75-25.85,20.3-11.75-2.03-15.15-13.92-12.53-27.84,1.57-8.7,7.57-22.91,14.36-31.61,13.32-17.11,27.94-26.1,41.52-25.81,4.44,0,7.05,2.32,7.05,5.51,0,4.06-1.57,7.54-4.96,10.44Zm-6.53-12.76c-6.53,0-16.19,9.86-19.06,14.5,2.09,1.16,4.18,2.03,7.05,2.03,7.83.29,15.41-8.12,15.15-13.63,0-1.74-1.57-2.9-3.13-2.9Z"/>
  </g>
</svg>