<?xml version="1.0" encoding="utf-8"?>
<!-- Generator: Adobe Illustrator 27.3.1, SVG Export Plug-In . SVG Version: 6.00 Build 0)  -->
<svg version="1.1" id="Layer_1" xmlns="http://www.w3.org/2000/svg" xmlns:xlink="http://www.w3.org/1999/xlink" x="0px" y="0px"
	 viewBox="0 0 1555.65 443.06" style="enable-background:new 0 0 1555.65 443.06;" xml:space="preserve">
<style type="text/css">
	.st0{fill:#FF6647;}
	.st1{enable-background:new    ;}
</style>
<path class="st0" d="M535.28,211.37c-15.15-35.33-45.04-64.71-84.18-82.73c-30.74-14.15-64.1-17.4-96.48-9.38
	c-21.6,5.35-42.01,15.4-60.03,29.44c-1.05-22.82-6.68-44.86-16.66-64.75c-14.96-29.81-39.11-53.05-69.85-67.2
	C168.95-1.28,127.19-4.89,90.5,6.57C56.33,17.25,28.78,40.63,14.92,70.72c-16.64,36.14-19.38,78.11-8.15,124.74
	c8.9,36.93,26.54,76.83,52.44,118.62c43.89,70.8,95.65,121.87,97.83,124.01c1.87,1.83,4.49,3.04,7.1,3.27
	c3.04,0.27,75.5,6.39,157.83-6.29c48.59-7.49,90.38-20.03,124.22-37.28c42.73-21.78,72.84-51.15,89.48-87.29
	C549.53,280.4,549.39,244.27,535.28,211.37z"/>
<g class="st1">
	<path d="M153.26,147.09c-4.96,5.51-21.41,34.51-33.16,63.8c-7.05,17.98-18.54,49.3-22.46,66.12c-1.31,4.93-2.09,10.44-0.26,11.02
		c2.35,0.58,8.36-7.54,10.44-11.6c1.83-3.19,2.09-4.93,2.87-4.64c0.78,0.29,0.78,2.32-1.57,6.67c-3.66,6.67-10.18,16.24-16.97,15.95
		c-6.53-0.29-8.09-6.38-7.57-14.5c0.26-3.19,1.57-11.31,2.87-15.95c6.53-23.2,12.79-40.02,19.85-56.26
		c12.27-28.42,25.33-48.72,40.74-61.48c4.96-4.06,10.71-5.8,11.23-4.35C159.53,142.74,157.44,142.45,153.26,147.09z"/>
	<path d="M230.81,217.56c-1.83,0.87-4.18,1.16-5.22,1.16c-2.35,0-3.92-0.29-5.74-1.45c6.27,10.44,8.62,24.36,3.39,37.99
		c-10.71,28.13-32.38,38.28-41.26,35.38c-8.88-2.9-16.71-14.79-10.18-36.25c5.74-18.27,15.93-29.87,31.6-37.41
		c2.09-1.16,5.48-2.61,6.01-2.03c0.26,0.29-1.57,1.45-3.13,3.48c-8.62,9.86-18.8,29-23.5,47.56c-3.13,12.47-3.66,20.01,0.26,21.75
		c3.92,1.74,9.4-1.74,17.76-16.24c5.22-8.99,11.23-21.46,14.36-34.51c2.61-10.44,2.09-19.14-3.39-24.65
		c-2.61-2.61-3.92-4.06-4.18-4.93c-0.52-1.45,0-3.77,2.09-4.64c2.35-1.16,3.66,0.58,4.7,2.61c1.83,3.19,3.39,5.51,4.7,6.96
		c1.57,1.74,3.13,2.61,6.27,3.19c1.04,0.29,3.13,0.29,4.96,0c1.31-0.29,2.87-0.87,2.87,0C233.16,216.11,232.64,216.69,230.81,217.56
		z"/>
	<path d="M344.92,229.16c-6.27,11.31-14.1,20.59-22.46,29.87c-11.49,12.76-25.07,24.94-29.77,33.06c-1.04,1.45-1.04,2.61-3.13,2.32
		c-5.48-0.87-6.53-5.51-6.53-6.38c0-3.48,0.78-6.96,2.61-9.86c1.83-3.77,3.92-10.15,4.7-13.63c3.92-14.79,6.53-26.68,7.05-38.57
		c0.26-7.54-2.35-11.6-6.79-11.6c-1.31,0-3.39,0.58-4.7,1.45c-2.87,1.74-4.7,4.06-4.96,3.19c-0.26-0.87,1.57-3.77,4.7-5.8
		c3.13-2.03,8.1-5.22,15.41-5.22c7.57,0,11.23,6.96,10.71,17.11c-0.78,15.08-6.27,30.74-11.23,44.66c-1.04,2.61-3.13,8.7-5.74,13.92
		c4.18-5.51,13.84-15.66,20.11-24.36c16.45-22.62,22.2-32.48,27.42-47.56c2.09-6.09,0.26-7.83,1.31-7.83c1.31,0,5.74,4.06,5.74,9.86
		C349.36,217.85,347.79,223.65,344.92,229.16z"/>
	<path d="M447.54,223.36c-4.18,3.77-12.27,6.96-19.32,6.09c-3.13-0.29-6.01-1.45-7.57-2.32c-1.31,2.03-5.48,8.99-7.31,13.05
		c-5.22,11.6-8.09,19.14-10.97,30.45c-2.35,9.86-1.57,16.53,2.35,17.69c5.74,1.74,14.88-6.67,20.89-17.69
		c3.39-6.38,5.48-13.34,6.53-17.98c0.26-1.45,0.78-3.48,1.57-3.48s0.78,1.74,0.78,3.19c-0.26,4.35-2.35,11.89-6.53,20.01
		c-7.31,13.92-17.5,21.75-25.85,20.3c-11.75-2.03-15.15-13.92-12.53-27.84c1.57-8.7,7.57-22.91,14.36-31.61
		c13.32-17.11,27.94-26.1,41.52-25.81c4.44,0,7.05,2.32,7.05,5.51C452.5,216.98,450.93,220.46,447.54,223.36z M441.01,210.6
		c-6.53,0-16.19,9.86-19.06,14.5c2.09,1.16,4.18,2.03,7.05,2.03c7.83,0.29,15.41-8.12,15.15-13.63
		C444.15,211.76,442.58,210.6,441.01,210.6z"/>
	<path d="M657.74,231.19c-2.35,8.99-4.96,17.98-10.71,32.48c-7.83,20.01-18.8,40.6-32.12,58.87
		c-24.02,32.77-62.93,58.58-88.78,58.58c-6.01,0-10.45-2.9-12.53-5.8c-1.31-1.74-2.09-5.8-1.31-6.38c0.52-0.29,0.78,0.87,2.61,2.32
		c3.39,2.61,7.31,4.06,12.79,4.06c27.68,0,44.13-9.86,75.99-55.39c13.06-18.56,25.85-46.98,33.95-68.44
		c-6.01,10.15-13.58,18.56-20.11,25.52c-6.53,6.96-12.27,12.47-14.88,16.53c-0.78,1.45-2.61,2.61-3.92,2.32
		c-4.44-0.87-6.27-4.06-4.7-8.99c1.83-5.8,3.92-11.89,5.22-16.82c3.66-13.34,7.05-29.58,7.57-42.63c0.26-6.96-1.57-11.31-5.48-11.31
		c-1.04,0-2.35,0.29-3.66,1.16c-2.09,1.16-3.4,2.32-3.66,1.74c-0.52-0.87,1.31-2.61,3.66-4.06c3.66-2.32,8.09-4.93,14.36-4.93
		c6.79,0,9.66,6.96,8.88,16.53c-1.04,16.24-5.74,33.35-9.66,44.66c-0.52,1.74-4.96,12.76-7.57,17.98c4.7-5.8,17.5-19.43,24.02-28.13
		c10.97-14.5,18.28-29.29,24.29-49.3c1.31-4.06,0.26-6.38,1.31-6.38c1.04,0,6.27,4.93,6.01,15.66
		C659.31,223.36,658.53,228.58,657.74,231.19z"/>
	<path d="M769.76,217.56c-1.83,0.87-4.18,1.16-5.22,1.16c-2.35,0-3.92-0.29-5.74-1.45c6.27,10.44,8.62,24.36,3.39,37.99
		c-10.71,28.13-32.38,38.28-41.26,35.38c-8.88-2.9-16.71-14.79-10.18-36.25c5.75-18.27,15.93-29.87,31.6-37.41
		c2.09-1.16,5.48-2.61,6.01-2.03c0.26,0.29-1.57,1.45-3.13,3.48c-8.62,9.86-18.8,29-23.5,47.56c-3.13,12.47-3.66,20.01,0.26,21.75
		c3.92,1.74,9.4-1.74,17.76-16.24c5.22-8.99,11.23-21.46,14.36-34.51c2.61-10.44,2.09-19.14-3.39-24.65
		c-2.61-2.61-3.92-4.06-4.18-4.93c-0.52-1.45,0-3.77,2.09-4.64c2.35-1.16,3.66,0.58,4.7,2.61c1.83,3.19,3.39,5.51,4.7,6.96
		c1.57,1.74,3.13,2.61,6.27,3.19c1.04,0.29,3.13,0.29,4.96,0c1.31-0.29,2.87-0.87,2.87,0C772.11,216.11,771.59,216.69,769.76,217.56
		z"/>
	<path d="M888.57,207.99c-4.18,7.25-12.79,27.84-17.23,40.89c-2.09,6.38-6.01,18.27-10.45,28.13c2.87-3.19,6.53-6.09,8.1-7.25
		c3.13-2.32,4.7-3.48,6.53-4.35c1.04-0.58,3.13-1.74,3.39-0.87c0.26,0.87-0.78,1.45-1.57,2.03c-3.13,2.03-6.27,4.64-9.66,7.54
		c-4.44,3.77-13.84,11.89-20.11,18.85c-0.52,0.58-1.83,3.19-3.4,2.9c-2.61-0.58-1.3-2.61,0.52-5.8c2.87-8.12,7.31-23.2,10.71-33.35
		c-3.66,6.38-9.92,16.24-12.79,20.01c-4.96,6.38-11.23,14.21-17.5,14.21c-6.79,0-9.66-3.77-9.66-8.12c0-6.96,2.09-15.95,8.88-34.51
		c4.7-12.47,9.14-20.88,13.84-30.16c-0.78,0.29-3.39,0.58-4.18,0.58c-2.35,0-3.92-0.58-3.39-1.45c0.26-0.58,1.04-0.29,5.48-1.45
		c3.92-0.87,13.84-3.77,16.19-5.51c1.31-0.58,2.35-0.29,1.57,1.45c-4.7,9.57-10.71,22.91-15.93,36.54
		c-4.7,12.18-7.31,20.59-8.88,27.55c-0.78,3.48-1.57,7.83,1.04,8.99c2.61,0.87,7.31-4.64,10.71-8.99
		c4.96-6.67,11.49-17.11,17.23-28.13c0.78-1.16,1.31-3.19,1.83-4.35c2.87-6.96,6.53-16.24,9.14-21.75
		c2.09-4.35,4.96-9.57,8.88-12.47c4.96-3.77,10.71-4.64,11.23-4.06C889.62,205.67,889.36,206.54,888.57,207.99z"/>
	<path d="M986.49,232.64c-0.78,0.29-2.61,1.74-3.39,0.87c-0.52-0.29,0.26-0.87,1.31-2.9c1.04-2.03,1.83-4.06,2.09-6.96
		c0.26-2.61-0.52-4.64-2.09-4.93c-1.83-0.29-3.66,0.87-4.96,2.03c-3.13,2.9-5.75,5.8-7.57,8.12c-5.22,6.38-9.66,13.63-13.32,19.72
		c-3.92,7.25-13.84,32.48-18.54,38.28c-0.78,1.16-1.57,1.45-2.61,2.9c-1.04,1.16-5.48,4.06-7.57,4.64
		c-1.83,0.58-4.96,0.87-5.74-0.29c-0.52-0.87,0.78-1.16,2.09-3.19c3.39-5.51,10.45-22.62,15.15-35.96
		c6.79-18.56,9.4-28.42,10.71-37.99c-1.31,0.58-2.87,0.87-4.96,1.16c-0.52,0-1.83,0.29-2.09-0.58c-0.26-1.16,0.78-1.45,1.57-1.74
		c4.18-1.45,16.19-5.8,19.32-8.41c1.04-0.58,2.09-0.58,2.61-0.29c0.78,0.87,0.52,1.74,0.26,3.19c-2.09,10.44-7.83,27.84-11.75,36.83
		c4.44-7.25,9.66-15.66,14.62-21.75c4.7-5.51,6.79-8.12,11.49-11.6c2.09-1.74,6.53-4.35,10.97-4.35c7.05,0,6.53,5.8,6.27,8.12
		C999.29,225.1,992.5,229.74,986.49,232.64z"/>
	<path d="M1230.9,160.43c-0.78,0.58-3.92,2.03-4.18,1.16c-0.26-0.87,1.04-1.16,2.35-2.61c2.35-2.61,3.92-4.93,3.92-8.7
		c0-4.35-2.09-7.25-6.53-7.25c-13.84,0-28.2,22.04-34.73,36.54c-6.01,11.89-10.18,24.07-14.36,35.67c2.87,0,7.05,0.29,10.97,0.58
		c6.79,0.58,10.18,1.45,9.92,2.32c-0.26,1.16-3.92,0.29-9.66,0.29c-4.7,0-8.62,0.29-12.79,0.58c-11.49,31.9-13.84,39.73-23.76,65.54
		c-20.37,53.65-51.96,96.86-88,96.86c-13.84,0-19.84-11.6-18.54-13.92c1.04-1.45,3.66,6.09,19.06,6.09c44.13,0,53.53-34.51,73.12-87
		c8.88-23.78,11.23-31.03,14.88-42.63c1.04-3.77,1.31-8.99,1.04-12.18c-0.78-6.96-3.66-9.28-7.05-10.73
		c-1.31-0.58-3.13-0.87-2.61-2.61c0.78-2.03,3.66-2.61,7.83-2.9c3.66-0.29,7.83-0.29,11.23-0.29c3.39-9.57,9.4-24.07,15.67-34.8
		c13.06-22.33,33.95-41.47,53.79-41.47c6.53,0,9.66,3.77,9.14,8.41C1241.09,152.02,1236.39,156.95,1230.9,160.43z M1152.57,219.88
		c3.13,3.77,3.39,12.47,2.35,17.69l6.53-18.27C1159.09,219.3,1154.65,219.59,1152.57,219.88z"/>
	<path d="M1287.04,254.1c-3.92,11.6-9.66,23.78-15.41,34.8c4.7-6.38,12.27-14.5,15.15-16.82c3.13-2.9,7.05-5.51,9.4-6.38
		c0.52-0.29,1.57-0.87,1.83-0.29c0.52,0.87-0.26,1.16-1.31,1.74c-2.09,1.16-7.31,5.8-10.71,9.28c-5.48,5.51-9.4,10.73-12.27,14.21
		s-6.27,7.25-10.45,6.67c-3.13-0.29-4.18-3.77-2.09-8.99c4.18-9.86,11.23-30.16,16.97-46.98c-6.27,11.89-13.84,23.49-20.89,32.19
		c-7.57,9.28-14.36,14.5-19.06,14.5c-7.31,0-10.45-6.38-10.71-15.95c0-5.22,1.83-13.34,4.44-19.72
		c4.44-11.02,12.53-22.33,21.93-30.16c7.83-6.96,16.97-11.6,25.07-11.31c5.48,0.29,7.83,4.35,7.83,7.54
		c1.04-2.03,2.61-4.93,3.39-6.09c2.09-2.9,3.13-4.64,6.79-3.77c3.92,0.87,4.96,3.77,4.44,5.22
		C1297.75,223.94,1292,239.6,1287.04,254.1z M1278.95,213.79c-11.75,0-26.11,24.07-36.04,47.27c-2.09,5.22-4.44,12.76-4.44,17.11
		c0,2.32,0.78,4.64,3.13,4.64c7.31,0,23.24-22.04,33.42-40.6c4.18-7.25,7.31-15.66,8.62-19.72
		C1285.48,216.98,1282.86,213.79,1278.95,213.79z"/>
	<path d="M1403.24,219.3c-1.04,0.58-2.35,1.74-2.87,0.58c-0.78-0.58,0-1.74,0.26-2.9c1.31-2.61,1.83-7.54-0.78-7.83
		c-10.18-1.74-28.98,29.29-35.51,55.68c-1.31,5.51-2.35,11.6-2.35,15.08c0,4.06,1.04,6.09,2.87,6.96c3.39,1.45,9.4-2.03,14.36-8.12
		c4.44-5.51,9.4-13.92,12.79-21.75c1.31-3.19,2.09-6.67,2.61-6.38c1.31,0.29,0,5.22-1.04,7.83c-2.87,8.12-7.57,16.53-12.53,22.62
		c-5.22,6.67-11.23,10.15-17.76,10.15c-9.92,0-14.62-7.83-14.88-15.95c-0.26-7.54,3.13-23.2,9.14-34.22
		c13.06-24.07,27.68-33.93,42.3-34.22c4.96,0,7.57,1.74,7.83,4.64C1407.94,214.95,1405.59,217.56,1403.24,219.3z"/>
	<path d="M1505.07,223.36c-4.18,3.77-12.27,6.96-19.32,6.09c-3.13-0.29-6.01-1.45-7.57-2.32c-1.31,2.03-5.48,8.99-7.31,13.05
		c-5.22,11.6-8.09,19.14-10.97,30.45c-2.35,9.86-1.57,16.53,2.35,17.69c5.74,1.74,14.88-6.67,20.89-17.69
		c3.39-6.38,5.48-13.34,6.53-17.98c0.26-1.45,0.78-3.48,1.57-3.48s0.78,1.74,0.78,3.19c-0.26,4.35-2.35,11.89-6.53,20.01
		c-7.31,13.92-17.5,21.75-25.85,20.3c-11.75-2.03-15.15-13.92-12.53-27.84c1.57-8.7,7.57-22.91,14.36-31.61
		c13.32-17.11,27.94-26.1,41.52-25.81c4.44,0,7.05,2.32,7.05,5.51C1510.03,216.98,1508.47,220.46,1505.07,223.36z M1498.55,210.6
		c-6.53,0-16.19,9.86-19.06,14.5c2.09,1.16,4.18,2.03,7.05,2.03c7.83,0.29,15.41-8.12,15.15-13.63
		C1501.68,211.76,1500.11,210.6,1498.55,210.6z"/>
</g>
</svg>
